<?xml version="1.0" encoding="UTF-8"?>
<svg xmlns="http://www.w3.org/2000/svg" xmlns:xlink="http://www.w3.org/1999/xlink" width="18px" height="16px" viewBox="0 0 18 16" version="1.1">
<g id="surface1">
<path style=" stroke:none;fill-rule:nonzero;fill:rgb(100%,100%,100%);fill-opacity:1;" d="M 2.699219 0 L 15.300781 0 C 16.792969 0 18 1.074219 18 2.398438 L 18 13.601562 C 18 14.925781 16.792969 16 15.300781 16 L 2.699219 16 C 1.207031 16 0 14.925781 0 13.601562 L 0 2.398438 C 0 1.074219 1.207031 0 2.699219 0 Z M 2.699219 0 "/>
<path style=" stroke:none;fill-rule:nonzero;fill:rgb(25.882354%,52.156866%,95.686275%);fill-opacity:1;" d="M 5.554688 12.21875 L 5.554688 7.78125 L 2.671875 5.8125 L 2.671875 11.28125 C 2.671875 11.90625 3.023438 12.21875 3.726562 12.21875 "/>
<path style=" stroke:none;fill-rule:nonzero;fill:rgb(91.764706%,26.274511%,20.784314%);fill-opacity:1;" d="M 5.414062 7.75 L 9 10.15625 L 12.585938 7.75 L 12.585938 4.6875 L 9 7.09375 L 5.414062 4.6875 "/>
<path style=" stroke:none;fill-rule:nonzero;fill:rgb(20.392157%,65.882355%,32.549021%);fill-opacity:1;" d="M 12.445312 12.21875 L 12.445312 7.78125 L 15.328125 5.8125 L 15.328125 11.28125 C 15.328125 11.90625 14.976562 12.21875 14.273438 12.21875 "/>
<path style=" stroke:none;fill-rule:nonzero;fill:rgb(77.254903%,13.333334%,12.156863%);fill-opacity:1;" d="M 2.671875 5.875 L 5.554688 7.84375 L 5.554688 4.78125 L 4.5 4.0625 C 3.550781 3.40625 2.671875 4.0625 2.671875 4.875 "/>
<path style=" stroke:none;fill-rule:nonzero;fill:rgb(98.431373%,73.725492%,1.568628%);fill-opacity:1;" d="M 15.328125 5.875 L 12.445312 7.84375 L 12.445312 4.78125 L 13.5 4.0625 C 14.449219 3.40625 15.328125 4.0625 15.328125 4.875 "/>
</g>
</svg>
