<?xml version="1.0" encoding="UTF-8"?>
<svg xmlns="http://www.w3.org/2000/svg" xmlns:xlink="http://www.w3.org/1999/xlink" width="18px" height="16px" viewBox="0 0 18 16" version="1.1">
<g id="surface1">
<path style=" stroke:none;fill-rule:nonzero;fill:rgb(3.921569%,40.000001%,76.078433%);fill-opacity:1;" d="M 13.753906 12.226562 L 11.753906 12.226562 L 11.753906 9.441406 C 11.753906 8.777344 11.738281 7.921875 10.710938 7.921875 C 9.671875 7.921875 9.511719 8.644531 9.511719 9.390625 L 9.511719 12.226562 L 7.511719 12.226562 L 7.511719 6.496094 L 9.429688 6.496094 L 9.429688 7.28125 L 9.457031 7.28125 C 9.847656 6.6875 10.578125 6.332031 11.351562 6.355469 C 13.378906 6.355469 13.753906 7.539062 13.753906 9.085938 Z M 5.253906 5.714844 C 4.613281 5.710938 4.097656 5.253906 4.09375 4.683594 C 4.09375 4.117188 4.617188 3.652344 5.253906 3.652344 C 5.890625 3.652344 6.414062 4.117188 6.414062 4.683594 C 6.414062 5.25 5.890625 5.714844 5.253906 5.714844 Z M 6.253906 12.226562 L 4.25 12.226562 L 4.25 6.496094 L 6.253906 6.496094 Z M 14.75 2 L 3.246094 2 C 2.703125 1.996094 2.257812 2.382812 2.25 2.867188 L 2.25 13.132812 C 2.257812 13.617188 2.703125 14.003906 3.246094 14 L 14.75 14 C 15.292969 14.003906 15.738281 13.617188 15.75 13.132812 L 15.75 2.863281 C 15.738281 2.382812 15.292969 1.996094 14.75 2 Z M 14.75 2 "/>
</g>
</svg>
