<?xml version="1.0" encoding="UTF-8"?>
<svg xmlns="http://www.w3.org/2000/svg" xmlns:xlink="http://www.w3.org/1999/xlink" width="18px" height="16px" viewBox="0 0 18 16" version="1.1">
<g id="surface1">
<path style=" stroke:none;fill-rule:nonzero;fill:rgb(0%,0%,0%);fill-opacity:1;" d="M 9 1.332031 C 5.308594 1.320312 2.160156 3.695312 1.566406 6.933594 C 0.976562 10.171875 3.125 13.308594 6.628906 14.332031 C 7.003906 14.386719 7.125 14.179688 7.125 14 L 7.125 12.875 C 5.046875 13.273438 4.605469 12 4.605469 12 C 4.464844 11.585938 4.160156 11.230469 3.75 11 C 3.066406 10.585938 3.800781 10.601562 3.800781 10.601562 C 4.28125 10.65625 4.703125 10.898438 4.949219 11.265625 C 5.382812 11.953125 6.355469 12.199219 7.132812 11.820312 C 7.167969 11.480469 7.335938 11.164062 7.605469 10.925781 C 6 10.78125 4.214844 10.207031 4.214844 7.667969 C 4.191406 7 4.460938 6.355469 4.964844 5.859375 C 4.738281 5.285156 4.761719 4.65625 5.039062 4.101562 C 5.039062 4.101562 5.671875 3.921875 7.101562 4.765625 C 8.332031 4.472656 9.625 4.472656 10.851562 4.765625 C 12.285156 3.90625 12.914062 4.101562 12.914062 4.101562 C 13.191406 4.65625 13.21875 5.285156 12.988281 5.859375 C 13.492188 6.355469 13.761719 7 13.738281 7.667969 C 13.738281 10.214844 11.984375 10.773438 10.3125 10.941406 C 10.675781 11.265625 10.867188 11.714844 10.828125 12.171875 L 10.828125 14 C 10.828125 14.179688 10.949219 14.394531 11.332031 14.332031 C 14.832031 13.3125 16.976562 10.183594 16.398438 6.949219 C 15.816406 3.71875 12.683594 1.335938 9 1.332031 Z M 9 1.332031 "/>
</g>
</svg>
